<svg xmlns="http://www.w3.org/2000/svg" xmlns:xlink="http://www.w3.org/1999/xlink" width="1920" zoomAndPan="magnify" viewBox="0 0 1440 809.999993" height="1080" preserveAspectRatio="xMidYMid meet" version="1.0"><defs><clipPath id="9ea1ca831f"><path d="M 595.550781 292.417969 L 844.65625 292.417969 L 844.65625 517.757812 L 595.550781 517.757812 Z M 595.550781 292.417969 " clip-rule="nonzero"/></clipPath><clipPath id="7593157bac"><path d="M 601.550781 292.417969 L 838.4375 292.417969 C 841.75 292.417969 844.4375 295.101562 844.4375 298.417969 L 844.4375 511.757812 C 844.4375 515.074219 841.75 517.757812 838.4375 517.757812 L 601.550781 517.757812 C 598.234375 517.757812 595.550781 515.074219 595.550781 511.757812 L 595.550781 298.417969 C 595.550781 295.101562 598.234375 292.417969 601.550781 292.417969 Z M 601.550781 292.417969 " clip-rule="nonzero"/></clipPath><clipPath id="8ca5251ebe"><path d="M 595.550781 292.417969 L 844.550781 292.417969 L 844.550781 517.417969 L 595.550781 517.417969 Z M 595.550781 292.417969 " clip-rule="nonzero"/></clipPath><clipPath id="a1df55088f"><path d="M 601.550781 292.417969 L 838.433594 292.417969 C 841.746094 292.417969 844.433594 295.105469 844.433594 298.417969 L 844.433594 511.753906 C 844.433594 515.070312 841.746094 517.753906 838.433594 517.753906 L 601.550781 517.753906 C 598.234375 517.753906 595.550781 515.070312 595.550781 511.753906 L 595.550781 298.417969 C 595.550781 295.105469 598.234375 292.417969 601.550781 292.417969 Z M 601.550781 292.417969 " clip-rule="nonzero"/></clipPath><clipPath id="1f08c94668"><path d="M 708 316.285156 L 744 316.285156 L 744 355 L 708 355 Z M 708 316.285156 " clip-rule="nonzero"/></clipPath><clipPath id="2cb9c005e0"><path d="M 604.792969 349 L 835 349 L 835 472.285156 L 604.792969 472.285156 Z M 604.792969 349 " clip-rule="nonzero"/></clipPath></defs><rect x="-144" width="1728" fill="#ffffff" y="-80.999999" height="971.999992" fill-opacity="1"/><g clip-path="url(#9ea1ca831f)"><g clip-path="url(#7593157bac)"><path fill="#fdf7f7" d="M 595.550781 292.417969 L 844.65625 292.417969 L 844.65625 517.757812 L 595.550781 517.757812 Z M 595.550781 292.417969 " fill-opacity="1" fill-rule="nonzero"/></g></g><g clip-path="url(#8ca5251ebe)"><g clip-path="url(#a1df55088f)"><path stroke-linecap="butt" transform="matrix(0.75, 0, 0, 0.75, 595.549536, 292.418355)" fill="none" stroke-linejoin="miter" d="M 8.00166 -0.000514852 L 323.845426 -0.000514852 C 328.262093 -0.000514852 331.845427 3.582819 331.845427 7.999486 L 331.845427 292.447417 C 331.845427 296.869292 328.262093 300.447417 323.845426 300.447417 L 8.00166 300.447417 C 3.579785 300.447417 0.00165999 296.869292 0.00165999 292.447417 L 0.00165999 7.999486 C 0.00165999 3.582819 3.579785 -0.000514852 8.00166 -0.000514852 Z M 8.00166 -0.000514852 " stroke="#000000" stroke-width="8" stroke-opacity="1" stroke-miterlimit="4"/></g></g><g clip-path="url(#1f08c94668)"><path fill="#d03531" d="M 727.566406 321.15625 C 727.84375 321.570312 728.074219 322.007812 728.304688 322.445312 C 728.648438 322.261719 728.992188 322.078125 729.363281 321.9375 C 729.453125 321.890625 729.570312 321.847656 729.660156 321.800781 C 731.730469 321.015625 733.847656 320.96875 736.355469 321.753906 C 739.136719 322.652344 741.324219 324.589844 742.566406 326.984375 C 743.808594 329.382812 744.128906 332.285156 743.257812 335.074219 C 741.875 339.386719 738.5625 342.886719 734.238281 345.953125 C 730.257812 348.8125 725.449219 351.277344 720.667969 353.765625 C 719.148438 354.550781 717.261719 353.953125 716.480469 352.429688 C 713.996094 347.636719 711.535156 342.84375 709.921875 338.1875 C 708.175781 333.183594 707.484375 328.390625 708.84375 324.082031 C 709.738281 321.292969 711.671875 319.101562 714.0625 317.859375 C 716.457031 316.613281 719.355469 316.292969 722.136719 317.167969 C 724.621094 318.019531 726.347656 319.289062 727.566406 321.15625 Z M 723.496094 328.136719 C 723.242188 326.570312 722.921875 325.394531 722.390625 324.589844 L 722.390625 324.566406 C 721.976562 323.921875 721.289062 323.460938 720.253906 323.136719 C 719.101562 322.769531 717.90625 322.90625 716.917969 323.4375 C 715.925781 323.941406 715.121094 324.84375 714.753906 325.996094 C 713.855469 328.828125 714.453125 332.332031 715.789062 336.160156 C 716.960938 339.5 718.710938 343.140625 720.574219 346.808594 C 724.207031 344.894531 727.730469 342.957031 730.628906 340.882812 C 733.917969 338.53125 736.425781 336.019531 737.320312 333.183594 C 737.6875 332.03125 737.550781 330.835938 737.023438 329.84375 C 736.515625 328.851562 735.617188 328.046875 734.46875 327.675781 C 733.410156 327.332031 732.582031 327.332031 731.871094 327.609375 L 731.707031 327.675781 C 730.855469 328.046875 729.914062 328.851562 728.832031 329.957031 C 727.636719 331.203125 725.65625 331.226562 724.4375 330.027344 C 723.886719 329.519531 723.585938 328.828125 723.496094 328.136719 Z M 723.496094 328.136719 " fill-opacity="1" fill-rule="evenodd"/></g><g clip-path="url(#2cb9c005e0)"><path fill="#000000" d="M 810.0625 450.335938 C 809.324219 450.636719 808.566406 450.9375 807.785156 451.191406 C 809.507812 453.496094 811.164062 456.699219 811.578125 460.847656 C 811.738281 462.4375 810.566406 463.867188 808.980469 464.003906 C 807.390625 464.167969 805.964844 462.992188 805.828125 461.378906 C 805.390625 457 803.023438 454.164062 801.457031 452.757812 C 800.238281 452.964844 798.996094 453.101562 797.777344 453.171875 C 800.238281 455.683594 801.917969 458.589844 803.023438 462.414062 C 803.457031 463.914062 804.886719 465.15625 806.609375 465.824219 C 807.507812 466.171875 808.472656 466.332031 809.371094 466.285156 C 810.152344 466.242188 810.910156 465.988281 811.511719 465.527344 C 812.523438 464.742188 813.28125 463.242188 813.398438 460.800781 C 813.742188 453.539062 811.324219 451.097656 810.0625 450.335938 Z M 814.339844 425.652344 C 813.625 430.929688 812.039062 438.328125 808.542969 444.644531 C 810.773438 443.652344 812.890625 442.410156 814.777344 440.910156 C 818.894531 437.660156 822.09375 431.96875 824.4375 425.769531 L 824.507812 425.605469 C 821.472656 425.769531 818.089844 425.792969 814.339844 425.652344 Z M 785.148438 372.597656 C 782.179688 372.597656 779.765625 376.445312 779.765625 381.171875 C 779.765625 385.894531 782.179688 389.746094 785.148438 389.746094 C 788.113281 389.746094 790.53125 385.894531 790.53125 381.171875 C 790.53125 376.421875 788.113281 372.597656 785.148438 372.597656 Z M 797.683594 428.996094 C 796.097656 428.996094 794.808594 430.285156 794.808594 431.875 C 794.808594 433.464844 796.097656 434.757812 797.683594 434.757812 C 799.273438 434.757812 800.558594 433.464844 800.558594 431.875 C 800.558594 430.285156 799.273438 428.996094 797.683594 428.996094 Z M 789.703125 421.367188 C 788.113281 421.367188 786.828125 422.65625 786.828125 424.246094 C 786.828125 425.835938 788.113281 427.128906 789.703125 427.128906 C 791.289062 427.128906 792.578125 425.835938 792.578125 424.246094 C 792.578125 422.65625 791.289062 421.367188 789.703125 421.367188 Z M 787.054688 431.761719 C 785.46875 431.761719 784.179688 433.050781 784.179688 434.640625 C 784.179688 436.230469 785.46875 437.523438 787.054688 437.523438 C 788.644531 437.523438 789.933594 436.230469 789.933594 434.640625 C 789.933594 433.050781 788.644531 431.761719 787.054688 431.761719 Z M 760.027344 373.195312 C 757.058594 373.195312 754.644531 377.046875 754.644531 381.769531 C 754.644531 386.496094 757.058594 390.34375 760.027344 390.34375 C 762.992188 390.34375 765.410156 386.519531 765.410156 381.769531 C 765.410156 377.023438 762.992188 373.195312 760.027344 373.195312 Z M 676.75 397.328125 C 676.75 397.351562 680.316406 405.761719 677.28125 407.214844 C 674.175781 408.714844 671.4375 403.828125 671.414062 403.828125 C 670.632812 402.421875 668.859375 401.9375 667.457031 402.742188 C 666.515625 403.273438 665.984375 404.242188 665.984375 405.257812 C 665.960938 405.855469 665.640625 409.679688 662.210938 410.097656 C 659.269531 410.441406 659.453125 401.269531 659.453125 401.246094 C 659.476562 399.65625 658.210938 398.320312 656.597656 398.296875 C 654.988281 398.273438 653.675781 399.539062 653.65625 401.152344 C 653.65625 401.199219 653.332031 417.035156 662.878906 415.882812 C 666.742188 415.421875 668.929688 413.324219 670.171875 411.132812 C 672.519531 413 675.808594 414.359375 679.742188 412.46875 C 687.839844 408.597656 682.089844 395.183594 682.066406 395.136719 C 681.46875 393.664062 679.765625 392.949219 678.292969 393.546875 C 676.84375 394.148438 676.152344 395.828125 676.75 397.328125 Z M 717.929688 392.234375 C 715.8125 397.765625 712.914062 408.574219 710.75 419.660156 C 708.773438 429.734375 707.4375 439.917969 707.875 446.351562 C 708.058594 449.160156 709.070312 451.097656 710.542969 452.34375 C 711.511719 453.171875 712.730469 453.726562 714.0625 454.070312 C 715.535156 454.441406 717.148438 454.53125 718.78125 454.441406 C 723.679688 454.09375 728.695312 451.90625 731.226562 448.929688 C 737.113281 441.949219 734.191406 430.03125 731.753906 422.265625 C 728.71875 412.585938 723.609375 402.050781 717.929688 392.234375 Z M 757.703125 422.796875 C 757.082031 424.269531 755.378906 424.960938 753.90625 424.339844 C 752.433594 423.71875 751.746094 422.011719 752.367188 420.535156 C 752.367188 420.511719 755.496094 413.183594 764.050781 409.84375 C 765.546875 409.265625 767.226562 410.003906 767.800781 411.5 C 768.378906 413 767.640625 414.683594 766.144531 415.257812 C 764.742188 415.8125 763.546875 416.480469 762.535156 417.195312 C 763.570312 420.03125 766.46875 425.03125 770.195312 430.195312 C 773.574219 434.871094 777.578125 439.621094 781.488281 442.9375 C 783.191406 444.390625 785.238281 445.472656 787.492188 446.210938 L 787.609375 446.257812 C 790.53125 447.203125 793.796875 447.546875 797.132812 447.386719 C 797.9375 447.339844 798.71875 447.273438 799.523438 447.15625 C 799.59375 447.085938 799.664062 447.042969 799.730469 446.972656 C 805.460938 441.164062 807.714844 431.578125 808.589844 425.191406 C 793.890625 422.679688 793.890625 408.160156 795.199219 399.632812 C 786.160156 400.808594 778.199219 402.191406 778.175781 402.214844 C 776.613281 402.488281 775.09375 401.453125 774.816406 399.863281 C 774.542969 398.296875 775.578125 396.773438 777.164062 396.496094 C 777.210938 396.496094 791.703125 393.9375 804.035156 392.808594 C 803.230469 388.777344 801.480469 381.515625 798.28125 373.242188 C 795.980469 367.296875 790.828125 362.15625 783.90625 358.929688 C 777.28125 355.839844 769.089844 354.503906 760.210938 355.796875 C 743.300781 358.308594 733.617188 380.640625 732.582031 383.082031 C 732.167969 384.421875 730.8125 385.296875 729.386719 385.089844 C 729.363281 385.089844 724.875 384.375 721.472656 386.839844 C 727.9375 397.671875 733.847656 409.589844 737.296875 420.492188 C 740.589844 430.929688 743.441406 443.445312 735.664062 452.664062 C 732.191406 456.769531 725.519531 459.785156 719.195312 460.226562 C 716.960938 460.386719 714.730469 460.226562 712.683594 459.695312 C 710.5 459.140625 708.496094 458.195312 706.816406 456.769531 C 704.195312 454.554688 702.421875 451.257812 702.101562 446.71875 C 701.617188 439.734375 703 429.019531 705.070312 418.53125 C 707.691406 405.140625 711.464844 391.910156 713.765625 387.277344 C 713.949219 386.910156 714.132812 386.5625 714.339844 386.21875 C 712.636719 383.476562 710.890625 380.800781 709.164062 378.289062 C 700.8125 366.074219 693.0625 357.085938 690 355.957031 C 684.042969 358.515625 682.019531 375.664062 681.949219 376.261719 C 681.8125 377.53125 680.867188 378.589844 679.558594 378.820312 L 654.34375 383.152344 C 652.847656 383.429688 651.378906 382.53125 650.984375 381.054688 C 650.457031 379.097656 647.191406 374.53125 643.234375 371.675781 C 641.761719 370.613281 640.242188 369.832031 638.863281 369.648438 C 637.78125 369.484375 636.699219 369.738281 635.757812 370.570312 C 634.054688 372.089844 632.558594 375.292969 631.570312 380.941406 C 630.050781 389.582031 628.28125 402.652344 626.554688 416.550781 C 633.15625 418.371094 636.308594 420.859375 636.332031 420.882812 C 637.597656 421.875 637.828125 423.695312 636.863281 424.960938 C 635.871094 426.230469 634.054688 426.460938 632.789062 425.492188 C 632.789062 425.492188 630.605469 423.761719 625.84375 422.335938 C 625.496094 425.191406 625.152344 428.097656 624.808594 430.953125 C 631.664062 432.128906 635.226562 435.355469 635.25 435.355469 C 636.449219 436.417969 636.5625 438.261719 635.503906 439.457031 C 634.445312 440.65625 632.605469 440.773438 631.410156 439.710938 C 631.410156 439.710938 629.015625 437.546875 624.140625 436.671875 C 621.332031 460.824219 622.117188 454.460938 622.09375 454.578125 C 621.933594 456.167969 620.503906 457.34375 618.917969 457.183594 C 617.332031 457.019531 616.15625 455.59375 616.320312 454 C 616.339844 453.886719 615.511719 460.433594 618.320312 436.394531 C 615.789062 436.554688 612.914062 437.0625 609.625 438.121094 C 608.105469 438.605469 606.472656 437.777344 605.988281 436.253906 C 605.507812 434.734375 606.335938 433.097656 607.851562 432.589844 C 612.039062 431.230469 615.742188 430.675781 618.988281 430.585938 C 619.355469 427.429688 619.746094 424.269531 620.113281 421.113281 C 616.777344 420.605469 612.730469 420.328125 607.921875 420.582031 C 606.335938 420.652344 604.953125 419.429688 604.886719 417.816406 C 604.792969 416.226562 606.035156 414.84375 607.625 414.773438 C 612.730469 414.496094 617.125 414.796875 620.828125 415.375 C 622.554688 401.546875 624.324219 388.570312 625.820312 379.972656 C 627.0625 372.917969 629.222656 368.609375 631.894531 366.257812 C 634.261719 364.160156 636.929688 363.539062 639.621094 363.929688 C 642.039062 364.277344 644.40625 365.429688 646.59375 367.019531 C 650.386719 369.761719 653.746094 374.003906 655.472656 377.113281 L 676.476562 373.519531 C 677.394531 367.847656 680.546875 352.890625 688.621094 350.332031 C 689.3125 350.125 690.046875 350.101562 690.851562 350.265625 C 695.0625 351.117188 704.539062 361.304688 713.949219 375.085938 C 715.445312 377.277344 716.960938 379.582031 718.457031 381.929688 C 721.816406 379.671875 725.636719 379.257812 728.003906 379.257812 C 730.949219 372.898438 741.578125 352.753906 759.40625 350.125 C 769.433594 348.652344 778.796875 350.195312 786.390625 353.742188 C 794.648438 357.617188 800.859375 363.863281 803.710938 371.214844 C 807.230469 380.316406 809.070312 388.339844 809.875 392.441406 L 810.269531 392.417969 C 811.945312 392.347656 813.8125 392.210938 815.535156 392.09375 C 817.765625 391.933594 819.816406 391.796875 821.863281 391.773438 C 829.9375 391.65625 834.8125 393.339844 834.953125 402.28125 C 835.042969 408.230469 833.410156 418.554688 829.890625 427.890625 C 827.222656 434.964844 823.425781 441.601562 818.386719 445.566406 C 817.46875 446.304688 816.480469 446.972656 815.488281 447.617188 C 817.605469 450.039062 819.539062 454.164062 819.195312 461.167969 C 818.964844 465.570312 817.332031 468.5 815.007812 470.25 C 813.441406 471.425781 811.625 472.023438 809.761719 472.164062 C 808.011719 472.277344 806.195312 471.980469 804.515625 471.332031 C 801.25 470.066406 798.421875 467.4375 797.453125 464.121094 C 796.625 461.214844 795.359375 459.050781 793.542969 457.207031 C 791.632812 455.292969 789.011719 453.609375 785.539062 451.765625 C 782.640625 450.796875 780.015625 449.371094 777.761719 447.480469 C 773.484375 443.835938 769.136719 438.722656 765.5 433.671875 C 762.417969 429.410156 759.84375 425.144531 758.230469 421.875 C 757.863281 422.402344 757.703125 422.796875 757.703125 422.796875 Z M 757.703125 422.796875 " fill-opacity="1" fill-rule="evenodd"/></g><path fill="#000000" d="M 640.816406 397.511719 C 642.957031 397.167969 645.257812 400.414062 645.949219 404.773438 C 646.636719 409.128906 645.488281 412.929688 643.347656 413.277344 C 641.210938 413.621094 638.910156 410.371094 638.21875 406.015625 C 637.503906 401.660156 638.679688 397.859375 640.816406 397.511719 Z M 640.816406 397.511719 " fill-opacity="1" fill-rule="evenodd"/><path fill="#000000" d="M 694.992188 388.960938 C 697.132812 388.617188 699.433594 391.863281 700.125 396.222656 C 700.8125 400.578125 699.664062 404.378906 697.523438 404.726562 C 695.382812 405.070312 693.085938 401.820312 692.394531 397.464844 C 691.679688 393.109375 692.855469 389.308594 694.992188 388.960938 Z M 694.992188 388.960938 " fill-opacity="1" fill-rule="evenodd"/></svg>